<svg width="40" height="40" viewBox="0 0 40 40" fill="none" xmlns="http://www.w3.org/2000/svg">
<path fill-rule="evenodd" clip-rule="evenodd" d="M8.3333 15.0002C8.3333 11.906 9.56246 8.93851 11.7504 6.75058C13.9383 4.56266 16.9058 3.3335 20 3.3335C23.0942 3.3335 26.0616 4.56266 28.2495 6.75058C30.4375 8.93851 31.6666 11.906 31.6666 15.0002V21.2735L34.7033 27.3468C34.8431 27.6264 34.9091 27.937 34.8951 28.2492C34.881 28.5614 34.7874 28.8649 34.6231 29.1307C34.4587 29.3966 34.2292 29.616 33.9562 29.7682C33.6832 29.9204 33.3758 30.0002 33.0633 30.0002H26.4566C26.0859 31.4306 25.2507 32.6974 24.0821 33.6017C22.9135 34.5061 21.4776 34.9967 20 34.9967C18.5223 34.9967 17.0865 34.5061 15.9179 33.6017C14.7493 32.6974 13.914 31.4306 13.5433 30.0002H6.93663C6.6241 30.0002 6.31673 29.9204 6.04374 29.7682C5.77075 29.616 5.5412 29.3966 5.37687 29.1307C5.21255 28.8649 5.11892 28.5614 5.10488 28.2492C5.09084 27.937 5.15684 27.6264 5.29663 27.3468L8.3333 21.2735V15.0002ZM17.1133 30.0002C17.4059 30.5069 17.8267 30.9276 18.3334 31.2201C18.8401 31.5127 19.4149 31.6667 20 31.6667C20.5851 31.6667 21.1598 31.5127 21.6666 31.2201C22.1733 30.9276 22.5941 30.5069 22.8866 30.0002H17.1133ZM20 6.66683C17.7898 6.66683 15.6702 7.5448 14.1074 9.10761C12.5446 10.6704 11.6666 12.79 11.6666 15.0002V21.2735C11.6666 21.7907 11.5462 22.3008 11.315 22.7635L9.36496 26.6668H30.6366L28.6866 22.7635C28.4548 22.301 28.3339 21.7909 28.3333 21.2735V15.0002C28.3333 12.79 27.4553 10.6704 25.8925 9.10761C24.3297 7.5448 22.2101 6.66683 20 6.66683Z" fill="white"/>
</svg>
