<svg width="35" height="35" viewBox="0 0 35 35" fill="none" xmlns="http://www.w3.org/2000/svg">
<path d="M35 17.4825C35 7.83125 27.16 0 17.5 0C7.84 0 0 7.83125 0 17.4825C0 22.7981 2.415 27.5887 6.195 30.8044C6.23 30.8394 6.265 30.8394 6.265 30.8744C6.58 31.1194 6.895 31.3644 7.245 31.6094C7.42 31.7144 7.56 31.8522 7.735 31.9922C10.6282 33.9505 14.0413 34.9981 17.535 35C21.0287 34.9981 24.4418 33.9505 27.335 31.9922C27.51 31.8872 27.65 31.7494 27.825 31.6422C28.14 31.3994 28.49 31.1544 28.805 30.9094C28.84 30.8744 28.875 30.8744 28.875 30.8394C32.585 27.5866 35 22.7981 35 17.4825ZM17.5 32.7972C14.21 32.7972 11.2 31.7472 8.715 29.9994C8.75 29.7194 8.82 29.4416 8.89 29.1616C9.09924 28.403 9.40508 27.6744 9.8 26.9937C10.185 26.3288 10.64 25.7338 11.2 25.2087C11.725 24.6838 12.355 24.1959 12.985 23.8109C13.65 23.4259 14.35 23.1459 15.12 22.9359C15.8962 22.728 16.6964 22.6229 17.5 22.6231C19.886 22.6051 22.1846 23.5204 23.905 25.1737C24.71 25.9788 25.34 26.923 25.795 28.0066C26.04 28.6366 26.215 29.3008 26.32 29.9994C23.7369 31.8153 20.6575 32.7922 17.5 32.7972ZM12.145 16.6097C11.8372 15.9034 11.6822 15.1401 11.69 14.3697C11.69 13.6019 11.83 12.8319 12.145 12.1319C12.46 11.4319 12.88 10.8041 13.405 10.2791C13.93 9.75406 14.56 9.33625 15.26 9.02125C15.96 8.70625 16.73 8.56625 17.5 8.56625C18.305 8.56625 19.04 8.70625 19.74 9.02125C20.44 9.33625 21.07 9.75625 21.595 10.2791C22.12 10.8041 22.54 11.4341 22.855 12.1319C23.17 12.8319 23.31 13.6019 23.31 14.3697C23.31 15.1747 23.17 15.9097 22.855 16.6075C22.5527 17.2981 22.1256 17.927 21.595 18.4625C21.0593 18.9923 20.4304 19.4187 19.74 19.7203C18.2935 20.3135 16.6715 20.3135 15.225 19.7203C14.5346 19.4187 13.9057 18.9923 13.37 18.4625C12.839 17.9346 12.422 17.3054 12.145 16.6097ZM28.385 28.2166C28.385 28.1466 28.35 28.1116 28.35 28.0416C28.0064 26.9463 27.499 25.9093 26.845 24.9659C26.1905 24.0156 25.3868 23.1772 24.465 22.4831C23.7608 21.9531 22.9973 21.5068 22.19 21.1531C22.5556 20.9086 22.8956 20.6279 23.205 20.3153C23.7268 19.8002 24.1851 19.2244 24.57 18.6003C25.3478 17.3279 25.7483 15.8608 25.725 14.3697C25.7364 13.2661 25.522 12.1718 25.095 11.1541C24.6739 10.1733 24.0679 9.28281 23.31 8.53125C22.5514 7.7898 21.6612 7.19632 20.685 6.78125C19.6658 6.35437 18.5699 6.14071 17.465 6.15344C16.3599 6.1414 15.2641 6.3558 14.245 6.78344C13.2581 7.19344 12.365 7.80002 11.62 8.56625C10.8747 9.32087 10.2807 10.2112 9.87 11.1891C9.44295 12.2068 9.22856 13.3011 9.24 14.4047C9.24 15.1747 9.345 15.909 9.555 16.6075C9.765 17.3425 10.045 18.0075 10.43 18.6353C10.78 19.2653 11.27 19.8253 11.795 20.3503C12.11 20.6653 12.46 20.9446 12.845 21.1881C12.0341 21.5491 11.2701 22.0075 10.57 22.5531C9.66 23.2531 8.855 24.0909 8.19 25.0009C7.52997 25.9408 7.02208 26.9787 6.685 28.0766C6.65 28.1466 6.65 28.2166 6.65 28.2516C3.885 25.4538 2.17 21.6781 2.17 17.4825C2.17 9.05625 9.065 2.16781 17.5 2.16781C25.935 2.16781 32.83 9.05625 32.83 17.4825C32.8254 21.5074 31.2273 25.3667 28.385 28.2166Z" fill="white"/>
</svg>
